# xmcd CD database file
#
# Track frame offsets:
#	150
#	46075
#	87350
#	140567
#	166512
#	207676
#	247656
#	279729
#
# Disc length: 4205 seconds
#
# Revision: 0
# Processed by: cddbd v1.5.1PL0 Copyright (c) Steve Scherf et al.
# Submitted via: CDex 1.51
#
DISCID=68106b08
DTITLE=Jeff Johnston - Nuage
DYEAR=2001
DGENRE=Jazz
TTITLE0=Nuage
TTITLE1=Valley
TTITLE2=Nardis
TTITLE3=The Night We Called It A Day
TTITLE4=Routes
TTITLE5=One By One
TTITLE6=Hubtown
TTITLE7=Charlevoix
EXTD=YEAR: 2001
EXTT0=
EXTT1=
EXTT2=
EXTT3=
EXTT4=
EXTT5=
EXTT6=
EXTT7=
PLAYORDER=
